<svg xmlns="http://www.w3.org/2000/svg" viewBox="0 0 267.8 84.96"><title>logo</title><path d="M0 42.47a42.41 42.41 0 1 1 29.22 40.38c3-17.53 14.1-31.84 28.73-37.89a9.45 9.45 0 1 0-2.3-6.19c-18.67 5.61-33.79 18.64-41.47 35.39a42.61 42.61 0 0 1-6.5-7.31 48.91 48.91 0 0 1 20.6-39 9.44 9.44 0 1 0-2.39-6.27v.82A47.13 47.13 0 0 0 .03 44.17v-1.65" fill="#ffcb05"/><path d="M252.23 54.4V21.09a.54.54 0 0 0-.63-.62h-7.49a.54.54 0 0 0-.63.63v35.7c0 6.42 2.48 7.52 8.18 7.52a.58.58 0 0 0 .45-.15.74.74 0 0 0 .1-.45V54.4zm-141.05 0V21.09a.54.54 0 0 0-.63-.62h-7.44a.54.54 0 0 0-.63.63v35.7c0 6.42 2.48 7.52 8.19 7.52a.56.56 0 0 0 .44-.15.72.72 0 0 0 .1-.45V54.4zm24.11 9.94a.54.54 0 0 1-.63-.62V40.28a.33.33 0 0 0-.38-.37h-1.89a.54.54 0 0 1-.63-.62V34.1a.54.54 0 0 1 .63-.62h1.89a.33.33 0 0 0 .38-.37v-2.19c0-7.31 3.4-10.44 10.7-10.44h4.75a.54.54 0 0 1 .63.62v5.64a.54.54 0 0 1-.63.63h-3.23c-2.77 0-3.46.69-3.46 3.25v2.48a.33.33 0 0 0 .38.38h4a.54.54 0 0 1 .63.63v5.19a.54.54 0 0 1-.63.63h-4a.33.33 0 0 0-.38.38v23.44a.54.54 0 0 1-.63.62h-7.49zm-16.65-37.03a.54.54 0 0 1-.63-.63v-5.59a.54.54 0 0 1 .63-.62h7.55a.54.54 0 0 1 .63.62v5.59a.54.54 0 0 1-.63.63h-7.55zm0 37a.54.54 0 0 1-.63-.62v-29.6a.54.54 0 0 1 .63-.62h7.55a.54.54 0 0 1 .63.63v29.63a.54.54 0 0 1-.63.62h-7.55zm65.03-8.14a31.3 31.3 0 0 1 0-14.65c1.76-5.62 6.61-8.65 13.15-8.65a13.49 13.49 0 0 1 11.51 5.75.62.62 0 0 1-.12.88l-5.48 3.6a.63.63 0 0 1-.94-.13 5.75 5.75 0 0 0-4.85-2.65 4.43 4.43 0 0 0-4.72 3.28 24.49 24.49 0 0 0 0 10.48 4.43 4.43 0 0 0 4.72 3.28 5.75 5.75 0 0 0 4.85-2.65.63.63 0 0 1 .94-.12l5.48 3.6a.62.62 0 0 1 .12.88 13.49 13.49 0 0 1-11.51 5.75c-6.55.04-11.39-3-13.15-8.65zm27.64 0a23.6 23.6 0 0 1-1-7.26 23.07 23.07 0 0 1 .93-7.33c1.76-5.49 6.61-8.65 13.09-8.65s11.39 3.22 13.15 8.59c.69 2.15.81 5.3.81 9.41a.58.58 0 0 1-.69.63h-18.08a.34.34 0 0 0-.38.38 7 7 0 0 0 .22 1.7c.82 2.72 3 4 6.29 4a9.88 9.88 0 0 0 5.61-1.62c1.12-.78 1.1-1.06 1.73-.55l4.68 3.38a.49.49 0 0 1 .06.88c-3.21 3.41-7.49 5.12-13 5.12-6.82.01-11.62-3.15-13.42-8.68zm18.12-10.48a.33.33 0 0 0 .38-.38 8.56 8.56 0 0 0-.32-2.27c-.75-2.21-2.29-3.35-4.94-3.35a5.26 5.26 0 0 0-5.26 3.35 8.71 8.71 0 0 0-.31 2.27.33.33 0 0 0 .38.38h10.07zm-78.04 10.48a23.54 23.54 0 0 1-1-7.26 23 23 0 0 1 .93-7.33c1.76-5.49 6.61-8.65 13.09-8.65s11.39 3.22 13.15 8.59c.69 2.15.81 5.3.81 9.41a.58.58 0 0 1-.69.63h-18.07a.34.34 0 0 0-.38.38 6.89 6.89 0 0 0 .22 1.7c.81 2.72 3 4 6.29 4a9.89 9.89 0 0 0 5.61-1.62c1.12-.78 1.1-1.06 1.73-.55l4.68 3.38a.49.49 0 0 1 .06.88c-3.21 3.41-7.49 5.12-13 5.12-6.82.01-11.71-3.15-13.43-8.68zm18.12-10.48a.33.33 0 0 0 .38-.38 8.52 8.52 0 0 0-.31-2.27c-.75-2.21-2.29-3.35-4.94-3.35a5.26 5.26 0 0 0-5.25 3.35 8.58 8.58 0 0 0-.32 2.27.33.33 0 0 0 .38.38h10.06zm98.28 8.71V21.09a.54.54 0 0 0-.63-.62h-7.49a.54.54 0 0 0-.63.63v35.7c0 6.42 2.48 7.52 8.19 7.52a.57.57 0 0 0 .46-.15.73.73 0 0 0 .1-.45V54.4z" fill="#fff"/></svg>