<?xml version="1.0" encoding="UTF-8" standalone="no"?>
<svg
   xmlns:dc="http://purl.org/dc/elements/1.1/"
   xmlns:cc="http://creativecommons.org/ns#"
   xmlns:rdf="http://www.w3.org/1999/02/22-rdf-syntax-ns#"
   xmlns:svg="http://www.w3.org/2000/svg"
   xmlns="http://www.w3.org/2000/svg"
   version="1.1"
   id="svg4172"
   viewBox="0 0 220.49476 220.58122"
   height="62.252922mm"
   width="62.228523mm">
  <defs
     id="defs4174" />
  <metadata
     id="metadata4177">
    <rdf:RDF>
      <cc:Work
         rdf:about="">
        <dc:format>image/svg+xml</dc:format>
        <dc:type
           rdf:resource="http://purl.org/dc/dcmitype/StillImage" />
        <dc:title></dc:title>
      </cc:Work>
    </rdf:RDF>
  </metadata>
  <g
     transform="translate(-302.38424,-361.47304)"
     id="layer1">
    <g
       transform="translate(93.749156,26.606259)"
       id="g4739">
      <path
         id="path4743"
         d="m 315.53569,555.40912 c -28.2793,-0.83401 -54.5855,-12.21777 -74.71158,-32.33075 -21.4862,-21.4722 -33.01931,-50.48541 -32.14245,-80.85903 0.49886,-17.28042 4.21001,-31.93443 11.92812,-47.1 5.3024,-10.41885 10.96835,-18.35853 19.02591,-26.66093 16.14449,-16.63507 36.44431,-27.56502 59.1,-31.82096 10.96361,-2.05954 24.71441,-2.3437 35.84999,-0.74083 23.61719,3.39949 45.42169,14.31282 62.25903,31.16114 18.08531,18.09709 29.06915,41.03504 31.81175,66.4336 0.55935,5.17993 0.64064,17.20088 0.14931,22.07798 -2.19527,21.79106 -10.2986,41.72216 -23.90615,58.8 -3.38198,4.24448 -12.51946,13.38196 -16.76394,16.76394 -14.96708,11.92571 -32.19191,19.6689 -50.7,22.79151 -6.53133,1.10194 -15.12229,1.68421 -21.89999,1.48433 z"
         style="fill:#f1d001" />
      <path
         id="path4741"
         d="m 315.53569,555.40912 c -28.2793,-0.83401 -54.5855,-12.21777 -74.71158,-32.33075 -21.4862,-21.4722 -33.01931,-50.48541 -32.14245,-80.85903 0.49886,-17.28042 4.21001,-31.93443 11.92812,-47.1 5.3024,-10.41885 10.96835,-18.35853 19.02591,-26.66093 16.14449,-16.63507 36.44431,-27.56502 59.1,-31.82096 10.96361,-2.05954 24.71441,-2.3437 35.84999,-0.74083 23.61719,3.39949 45.42169,14.31282 62.25903,31.16114 18.08531,18.09709 29.06915,41.03504 31.81175,66.4336 0.55935,5.17993 0.64064,17.20088 0.14931,22.07798 -2.19527,21.79106 -10.2986,41.72216 -23.90615,58.8 -3.38198,4.24448 -12.51946,13.38196 -16.76394,16.76394 -14.96708,11.92571 -32.19191,19.6689 -50.7,22.79151 -6.53133,1.10194 -15.12229,1.68421 -21.89999,1.48433 z m 16.49999,-19.83945 c 20.05877,-3.12714 37.48234,-11.88092 51.45088,-25.84945 14.14777,-14.14778 22.92715,-31.79533 25.96912,-52.20088 0.65185,-4.37266 0.90096,-15.78787 0.44955,-20.60112 -1.69805,-18.10613 -8.38033,-34.67183 -19.76519,-48.99888 -3.04325,-3.82972 -10.27902,-11.04451 -14.15436,-14.11331 -20.57077,-16.28957 -46.57619,-23.03835 -72.17956,-18.73164 -37.65081,6.33321 -67.37812,35.36324 -74.64583,72.89495 -0.8255,4.26306 -1.36917,9.35326 -1.57133,14.71202 -0.21958,5.82024 -0.0748,6.23885 1.32911,3.84214 8.87615,-15.15344 21.88839,-27.87096 37.71762,-36.86333 4.31681,-2.45232 7.39277,-3.91473 12.6,-5.99045 l 3.9,-1.55463 0.19895,-2.80328 c 0.5293,-7.45804 4.73597,-13.89721 11.14541,-17.06033 3.10047,-1.53011 5.63028,-2.12327 9.05564,-2.12327 3.42535,0 5.95516,0.59316 9.05563,2.12327 9.82395,4.84821 13.9095,16.89765 9.09301,26.81786 -3.45521,7.11649 -10.2374,11.36278 -18.14864,11.36278 -5.00079,0 -9.2365,-1.54977 -13.17849,-4.82178 l -2.03801,-1.69163 -0.94175,0.51032 c -3.67508,1.99151 -14.9499,12.55661 -19.57232,18.34031 -14.10648,17.65041 -21.73105,37.12411 -23.51778,60.06613 -0.25451,3.26787 -0.24851,4.42616 0.0257,4.95 1.57596,3.01134 12.97635,15.57604 13.71722,15.11816 0.19378,-0.11977 1.29712,-2.09884 2.45186,-4.39796 16.22931,-32.31281 46.22869,-57.76679 82.35361,-69.87567 l 4.2,-1.40782 0.25281,-1.77642 c 0.36056,-2.53352 1.3156,-5.68666 2.30673,-7.61585 5.04652,-9.82276 17.4501,-13.67444 27.38061,-8.50249 3.25025,1.69279 6.9115,5.46946 8.52321,8.79192 2.94776,6.07667 2.92334,12.1608 -0.0732,18.23184 -2.38568,4.83342 -6.61287,8.41646 -11.99016,10.16305 -3.0463,0.98947 -7.89442,1.12415 -10.95,0.30418 -2.97185,-0.7975 -6.07299,-2.47057 -8.21149,-4.43012 -1.06177,-0.97292 -2.1123,-1.76788 -2.3345,-1.76658 -0.70498,0.004 -6.58048,2.80918 -10.00401,4.77604 -4.04464,2.32369 -8.96071,5.66663 -12.75,8.67001 -4.00448,3.17396 -13.14569,12.44626 -16.31757,16.55158 -8.1866,10.59583 -14.22872,21.97573 -18.3288,34.52097 -1.38029,4.22335 -3.53399,12.66146 -3.91754,15.3488 -0.24242,1.69845 -0.45342,1.57789 5.41392,3.09324 8.59304,2.2193 14.1548,2.8374 24.29999,2.70054 5.92994,-0.08 8.73504,-0.25099 11.7,-0.71322 z"
         style="fill:#224e98" />
    </g>
  </g>
</svg>
