<?xml version="1.0" encoding="UTF-8" standalone="no"?>
<svg
   xmlns:dc="http://purl.org/dc/elements/1.1/"
   xmlns:cc="http://creativecommons.org/ns#"
   xmlns:rdf="http://www.w3.org/1999/02/22-rdf-syntax-ns#"
   xmlns:svg="http://www.w3.org/2000/svg"
   xmlns="http://www.w3.org/2000/svg"
   version="1.1"
   id="svg4778"
   viewBox="0 0 127.05755 141.9673"
   height="40.066326mm"
   width="35.858463mm">
  <defs
     id="defs4780" />
  <metadata
     id="metadata4783">
    <rdf:RDF>
      <cc:Work
         rdf:about="">
        <dc:format>image/svg+xml</dc:format>
        <dc:type
           rdf:resource="http://purl.org/dc/dcmitype/StillImage" />
        <dc:title></dc:title>
      </cc:Work>
    </rdf:RDF>
  </metadata>
  <g
     transform="translate(-212.18231,-585.95764)"
     id="layer1">
    <g
       id="g5390">
      <path
         style="fill:#5892cb"
         d="m 219.55972,727.53334 c -2.93297,-1.1832 -6.56102,-5.46586 -7.11016,-8.39306 -0.82344,-4.38927 0.17694,-7.81585 4.10868,-14.07348 3.1501,-5.01359 3.47023,-6.13177 3.47023,-12.12129 0,-8.38931 0.82203,-9.6421 12.34734,-18.8175 12.35548,-9.8363 23.40184,-20.53745 26.29365,-25.47196 l 2.39556,-4.08771 -2.05528,-2.77991 c -2.34812,-3.176 -1.93206,-6.04527 1.01208,-6.9797 1.45642,-0.46225 2.88813,0.32947 5.84691,3.23329 2.15501,2.11499 4.53842,3.84544 5.29646,3.84544 0.75803,0 11.28894,-9.92781 23.40201,-22.06181 19.23196,-19.26517 22.31083,-21.99131 24.28829,-21.50569 1.88634,0.46323 3.39403,-0.56587 9.02791,-6.16215 5.37824,-5.34235 7.16065,-6.59216 8.70315,-6.10259 1.06687,0.33861 2.2168,1.48854 2.55541,2.55541 0.48939,1.54192 -0.75382,3.31844 -6.06163,8.66191 -5.95113,5.99111 -6.61928,7.02389 -6.14387,9.49666 0.49959,2.59859 -0.86658,4.17093 -21.54667,24.79828 -12.14403,12.11307 -22.08007,22.43304 -22.08007,22.93326 0,0.50023 1.73045,2.6727 3.84544,4.82771 2.90382,2.95878 3.69554,4.39049 3.23329,5.84691 -0.92824,2.92463 -3.80178,3.36162 -6.92435,1.053 -2.64734,-1.95726 -2.81435,-1.968 -5.8926,-0.37888 -4.8138,2.4851 -15.03871,12.76352 -24.93202,25.0625 -4.8913,6.08067 -9.99434,11.77598 -11.34009,12.65625 -1.71678,1.12296 -4.40198,1.60048 -8.99981,1.60048 l -6.55299,0 -2.58524,3.75 c -5.31337,7.70727 -3.96467,12.46618 3.20793,11.31923 5.14188,-0.82221 9.4957,-3.23837 17.09669,-9.48781 13.56073,-11.14948 20.12716,-11.64389 32.31276,-2.43294 5.92156,4.47603 10.02411,5.56155 14.34349,3.79525 4.41374,-1.80488 16.81031,-14.61466 26.84761,-27.74252 4.80392,-6.28309 9.32065,-11.64876 10.03715,-11.92371 1.93243,-0.74154 3.96663,0.3086 4.62678,2.38856 0.77112,2.42958 -12.81969,20.59809 -24.24701,32.41397 -14.94424,15.45239 -23.08276,17.03852 -36.30411,7.07535 -5.55822,-4.18849 -9.02211,-5.45383 -12.52392,-4.57493 -1.23805,0.31073 -5.7732,3.37331 -10.07812,6.80573 -4.30492,3.43242 -10.04072,7.26208 -12.74622,8.51036 -4.87514,2.24933 -13.46707,3.56037 -16.17466,2.46809 z m 18.05744,-27.43578 c 1.2331,-0.46883 5.85821,-5.42586 10.27803,-11.01563 9.41462,-11.90674 18.78575,-21.71499 24.11979,-25.24489 2.08711,-1.38118 3.79474,-2.78479 3.79474,-3.11913 0,-0.33434 -2.56834,-3.12594 -5.70742,-6.20355 l -5.70741,-5.59565 -1.52884,2.34375 c -3.20951,4.92027 -17.01255,18.341 -27.09106,26.3407 -11.67708,9.26856 -13.16524,11.83589 -10.1927,17.58415 2.43094,4.70091 7.3291,6.69937 12.03487,4.91025 z m 63.3201,-70.68126 c 21.67199,-21.68805 22.37605,-22.68549 17.75766,-25.15718 -1.69444,-0.90683 -4.12591,1.21795 -23.055,20.14704 l -21.16078,21.16079 2.23496,2.379 c 1.22923,1.30846 2.48134,2.37901 2.78248,2.37901 0.30113,0 9.94944,-9.4089 21.44068,-20.90866 z"
         id="path5374" />
      <path
         style="opacity:1;fill:#b5dbfd;fill-opacity:1;stroke:#000000;stroke-width:0;stroke-linejoin:miter;stroke-miterlimit:0;stroke-dasharray:none;stroke-opacity:1"
         d="m 231.30591,700.29613 c -2.74313,-0.85729 -4.82896,-2.83502 -6.26151,-5.85158 -2.31411,-4.87286 -0.51013,-7.90808 9.41218,-15.9475 12.03807,-9.75369 24.29493,-21.00108 28.31771,-27.18302 l 1.56334,-2.40243 5.95033,5.64448 c 3.12675,2.96603 5.59318,5.93273 5.59318,6.12136 0,0.46622 -1.11485,1.20554 -4.61487,3.80578 -6.10861,4.53821 -13.08794,11.97191 -24.37536,25.89976 -1.7362,2.14234 -4.41898,5.26347 -6.01628,6.88127 -2.70522,2.73996 -3.21908,3.09451 -4.46565,3.35424 -1.73064,0.36059 -3.39858,0.20335 -4.73206,-0.21331 z"
         id="path5378" />
      <path
         style="opacity:1;fill:#def0fe;fill-opacity:1;stroke:#000000;stroke-width:0;stroke-linejoin:miter;stroke-miterlimit:0;stroke-dasharray:none;stroke-opacity:1"
         d="m 276.67893,648.06891 c -1.21324,-1.23327 -2.20589,-2.32024 -2.20589,-2.41548 0,-0.31879 37.331,-37.68891 39.82832,-39.824 1.35515,-1.15857 2.85387,-2.33351 3.75821,-2.62012 0,0 0.60335,-0.38054 1.3358,-0.31211 0.73545,0.0687 1.34535,0.59385 1.34535,0.59385 0.72699,0.57097 1.22778,1.04073 1.43745,1.54912 0.29606,0.71792 0.2523,0.94875 -0.43903,2.31497 -0.42232,0.83465 -1.7945,2.88073 -2.97212,4.2382 -3.11124,3.58646 -38.69502,39.21485 -39.18684,39.03356 -0.56255,-0.20736 -1.6876,-1.32427 -2.90125,-2.55799 z"
         id="path5380" />
    </g>
  </g>
</svg>
