<?xml version="1.0" encoding="UTF-8" standalone="no"?>
<svg
   xmlns:dc="http://purl.org/dc/elements/1.1/"
   xmlns:cc="http://creativecommons.org/ns#"
   xmlns:rdf="http://www.w3.org/1999/02/22-rdf-syntax-ns#"
   xmlns:svg="http://www.w3.org/2000/svg"
   xmlns="http://www.w3.org/2000/svg"
   version="1.1"
   id="svg2"
   viewBox="0 0 348.75001 337.5"
   height="95.25mm"
   width="98.425003mm">
  <defs
     id="defs4" />
  <metadata
     id="metadata7">
    <rdf:RDF>
      <cc:Work
         rdf:about="">
        <dc:format>image/svg+xml</dc:format>
        <dc:type
           rdf:resource="http://purl.org/dc/dcmitype/StillImage" />
        <dc:title></dc:title>
      </cc:Work>
    </rdf:RDF>
  </metadata>
  <g
     transform="translate(-302.83244,-559.91401)"
     id="layer1">
    <g
       transform="translate(134.35029,484.87322)"
       id="g4147">
      <path
         id="path4151"
         d="m 168.48215,243.79079 0,-168.750003 174.375,0 174.375,0 0,168.750003 0,168.75 -174.375,0 -174.375,0 0,-168.75 z"
         style="fill:#fefafa" />
      <path
         id="path4149"
         d="m 326.02847,408.64739 c -22.59823,-2.00523 -50.20661,-10.76959 -69.59542,-22.09327 -44.80996,-26.17042 -74.13036,-68.04625 -82.38084,-117.6575 -4.2294,-25.43198 -0.88026,-59.00851 8.23965,-82.60583 19.50916,-50.47905 62.5884,-88.714173 116.08365,-103.030444 29.65434,-7.93602 64.90978,-7.495112 94.76898,1.185192 3.62321,1.053297 6.58766,2.395786 6.58766,2.983308 0,0.587522 -4.35938,1.460618 -9.6875,1.940216 -56.13379,5.05273 -103.51891,36.407728 -126.63749,83.796728 -15.43049,31.6298 -17.97639,68.19832 -6.70878,96.36292 15.40222,38.49948 51.79997,62.69166 90.48982,60.1451 30.4534,-2.00444 58.33479,-20.26497 71.69677,-46.95686 7.74172,-15.46481 10.10764,-26.80316 9.26934,-44.42199 -1.81182,-38.07972 -22.88839,-65.04935 -59.83657,-76.56706 l -11.08559,-3.45567 0,-7.01384 c 0,-24.21857 18.58467,-49.15007 43.40338,-58.226002 l 9.02837,-3.301577 9.72163,4.61326 c 26.07912,12.375479 52.48676,35.172549 68.18102,58.859009 18.94381,28.59083 27.1656,56.04373 27.1656,90.70712 0,26.65145 -5.14361,49.04109 -16.41753,71.46377 -26.90893,53.51922 -78.53953,87.99913 -139.83247,93.3828 -15.80806,1.3885 -15.56365,1.38933 -32.45368,-0.10937 z"
         style="fill:#e20722" />
    </g>
  </g>
</svg>
