<?xml version="1.0" standalone="no"?>
<!DOCTYPE svg PUBLIC "-//W3C//DTD SVG 20010904//EN"
 "http://www.w3.org/TR/2001/REC-SVG-20010904/DTD/svg10.dtd">
<svg version="1.0" xmlns="http://www.w3.org/2000/svg"
 width="100.000000pt" height="100.000000pt" viewBox="0 0 100.000000 100.000000"
 preserveAspectRatio="xMidYMid meet">
<metadata>
Created by potrace 1.11, written by Peter Selinger 2001-2013
</metadata>
<g transform="translate(0.000000,100.000000) scale(0.100000,-0.100000)"
fill="#000000" stroke="none">
<path d="M823 936 c-26 -25 -53 -44 -59 -42 -7 3 -80 -65 -164 -149 l-153
-153 -31 29 c-17 16 -37 29 -44 29 -18 0 -27 -29 -13 -43 6 -6 11 -19 11 -30
0 -25 -96 -124 -187 -194 -58 -44 -74 -62 -79 -89 -3 -19 -3 -41 0 -50 4 -10
-4 -33 -19 -55 -13 -21 -27 -56 -31 -77 -5 -32 -2 -43 16 -60 12 -11 29 -22
39 -25 35 -9 111 21 178 71 39 29 78 52 88 52 9 0 43 -16 75 -36 95 -58 147
-47 241 53 75 80 162 201 155 218 -9 24 -31 18 -57 -17 -68 -89 -117 -148
-162 -190 -60 -59 -94 -62 -155 -19 -77 56 -124 51 -221 -23 -70 -54 -112 -70
-138 -51 -17 13 -17 15 2 52 18 35 24 38 62 38 56 1 80 16 130 82 57 75 113
135 158 169 35 27 37 27 65 11 24 -14 29 -15 39 -3 10 11 5 22 -19 50 l-31 35
151 151 c89 89 149 157 146 165 -2 7 15 34 40 59 48 51 51 58 30 75 -12 10
-24 3 -63 -33z"/>
</g>
</svg>
